<svg width="500"
    height="499"
    viewBox="0 0 500 499"
    fill="none"
    xmlns="http://www.w3.org/2000/svg">

    <path d="M203.288 347.798C204.674 343.304 208.916 340.91 215.804 338.894C220.172 337.634 225.716 337.046 234.41 335.282C238.652 334.442 241.634 332.762 241.634 332.762V337.592C241.634 337.592 212.864 343.262 208.37 350.696C206.186 354.35 206.858 363.296 217.148 364.22C213.998 364.682 208.832 363.884 206.06 361.07C202.616 357.584 201.692 352.922 203.288 347.798Z"
        fill="#282323"
        stroke="black"
        stroke-width="4"
        stroke-miterlimit="10"
        stroke-linecap="round"
        stroke-linejoin="round"/>
    <path d="M241.634 337.592C241.634 337.592 224.414 340.784 215.216 344.732C207.152 348.218 207.404 351.83 207.194 355.526C207.068 357.668 208.58 362.96 214.712 363.884C222.02 364.976 230.63 363.8 241.634 356.786C241.634 339.608 241.634 337.592 241.634 337.592Z"
        fill="#442C2A"/>
    <path opacity="0.37"
        d="M207.194 355.526C207.362 352.544 207.236 349.604 211.436 346.748C211.268 347.798 211.226 348.806 211.184 349.856C211.058 351.998 216.224 349.226 222.356 350.108C228.74 351.074 232.52 358.382 241.634 353.468C241.634 354.518 241.634 355.61 241.634 356.744C230.63 363.758 222.02 364.892 214.712 363.842C208.58 362.96 207.068 357.626 207.194 355.526Z"
        fill="#442C2A"/>
    <path d="M241.634 337.592C241.634 337.592 224.414 340.784 215.216 344.732C207.152 348.218 207.404 351.83 207.194 355.526C207.068 357.668 208.58 362.96 214.712 363.884C222.02 364.976 230.63 363.8 241.634 356.786C241.634 339.608 241.634 337.592 241.634 337.592Z"
        stroke="black"
        stroke-width="4"
        stroke-miterlimit="10"
        stroke-linecap="round"
        stroke-linejoin="round"/>
    <path d="M225.674 347.462C224.288 348.218 224.624 355.568 227.984 356.576"
        stroke="black"
        stroke-width="4"
        stroke-miterlimit="10"
        stroke-linecap="round"
        stroke-linejoin="round"/>
    <path d="M230.924 346.916C229.496 348.932 230.504 353.678 233.066 354.854"
        stroke="black"
        stroke-width="4"
        stroke-miterlimit="10"
        stroke-linecap="round"
        stroke-linejoin="round"/>
    <path d="M235.754 345.236C234.326 347.252 235.334 351.998 237.896 353.174"
        stroke="black"
        stroke-width="4"
        stroke-miterlimit="10"
        stroke-linecap="round"
        stroke-linejoin="round"/>
    <path d="M285.314 323.48C276.242 329.78 263.348 333.392 249.866 333.392C236.426 333.392 223.49 329.78 214.418 323.48C210.26 320.582 203.288 314.534 203.288 306.47C203.288 298.406 210.26 292.358 214.418 289.46C223.49 283.16 236.384 279.548 249.866 279.548C263.306 279.548 276.242 283.16 285.314 289.46C289.472 292.358 296.444 298.406 296.444 306.47C296.444 314.534 289.472 320.582 285.314 323.48Z"
        fill="#151E28"/>
    <path d="M326.852 313.19C326.684 314.03 326.516 314.828 326.264 315.668C319.712 339.566 288.128 357.71 250.118 357.71C212.024 357.71 180.356 339.482 173.93 315.5C173.762 314.828 173.594 314.156 173.468 313.484C173.3 312.224 173.342 310.964 173.594 309.704C175.148 302.648 183.716 298.574 192.746 300.59C198.668 301.892 203.288 305.546 205.346 309.872C205.556 310.796 205.892 311.72 206.27 312.602C208.454 317.642 212.822 321.422 215.762 323.522C224.54 329.822 237.098 333.434 250.118 333.434C263.18 333.434 275.696 329.822 284.474 323.522C287.456 321.38 291.866 317.558 294.008 312.518C294.344 311.72 294.638 310.838 294.848 309.998C296.864 305.63 301.526 301.976 307.49 300.632C316.52 298.616 325.088 302.732 326.642 309.746C326.936 310.838 326.978 312.014 326.852 313.19Z"
        fill="#2A3749"/>
    <path opacity="0.67"
        d="M326.642 309.662C326.6 309.452 326.558 309.284 326.474 309.074C326.348 309.746 326.18 310.46 325.97 311.132C319.502 335.03 287.876 353.174 249.908 353.174C211.814 353.174 180.146 334.946 173.72 310.964C173.636 310.712 173.594 310.46 173.51 310.166C173.342 311.258 173.3 312.35 173.468 313.4C173.594 314.072 173.762 314.744 173.93 315.416C180.356 339.398 212.024 357.626 250.118 357.626C288.128 357.626 319.712 339.482 326.264 315.584C326.474 314.786 326.684 313.946 326.852 313.106C326.978 312.014 326.936 310.838 326.642 309.662Z"
        fill="#151E28"/>
    <path d="M326.852 313.19C326.684 314.03 326.516 314.828 326.264 315.668C319.712 339.566 288.128 357.71 250.118 357.71C212.024 357.71 180.356 339.482 173.93 315.5C173.762 314.828 173.594 314.156 173.468 313.484C173.3 312.224 173.342 310.964 173.594 309.704C175.148 302.648 183.716 298.574 192.746 300.59C198.668 301.892 203.288 305.546 205.346 309.872C205.556 310.796 205.892 311.72 206.27 312.602C208.454 317.642 212.822 321.422 215.762 323.522C224.54 329.822 237.098 333.434 250.118 333.434C263.18 333.434 275.696 329.822 284.474 323.522C287.456 321.38 291.866 317.558 294.008 312.518C294.344 311.72 294.638 310.838 294.848 309.998C296.864 305.63 301.526 301.976 307.49 300.632C316.52 298.616 325.088 302.732 326.642 309.746C326.936 310.838 326.978 312.014 326.852 313.19Z"
        stroke="black"
        stroke-width="4"
        stroke-miterlimit="10"
        stroke-linecap="round"
        stroke-linejoin="round"/>
    <path d="M250.622 320.582C271.522 320.582 288.464 314.828 288.464 307.73C288.464 300.632 271.522 294.878 250.622 294.878C229.722 294.878 212.78 300.632 212.78 307.73C212.78 314.828 229.722 320.582 250.622 320.582Z"
        fill="#9B2121"/>
    <path d="M250.622 320.582C271.522 320.582 288.464 314.828 288.464 307.73C288.464 300.632 271.522 294.878 250.622 294.878C229.722 294.878 212.78 300.632 212.78 307.73C212.78 314.828 229.722 320.582 250.622 320.582Z"
        stroke="black"
        stroke-width="4"
        stroke-miterlimit="10"
        stroke-linecap="round"
        stroke-linejoin="round"/>
    <path d="M293.714 279.674H206.522C199.844 279.674 194.678 273.836 195.518 267.2L199.382 236.33C200.474 227.51 207.95 220.916 216.854 220.916H283.466C292.328 220.916 299.804 227.51 300.938 236.33L304.802 267.2C305.558 273.836 300.392 279.674 293.714 279.674Z"
        fill="#F1534D"/>
    <path d="M293.714 279.674H206.522C199.844 279.674 194.678 273.836 195.518 267.2L199.382 236.33C200.474 227.51 207.95 220.916 216.854 220.916H283.466C292.328 220.916 299.804 227.51 300.938 236.33L304.802 267.2C305.558 273.836 300.392 279.674 293.714 279.674Z"
        stroke="black"
        stroke-width="4"
        stroke-miterlimit="10"
        stroke-linecap="round"
        stroke-linejoin="round"/>
    <path d="M215.972 246.998L215.132 257.54"
        stroke="black"
        stroke-width="4"
        stroke-miterlimit="10"
        stroke-linecap="round"
        stroke-linejoin="round"/>
    <path d="M284.894 246.998L285.734 257.54"
        stroke="black"
        stroke-width="4"
        stroke-miterlimit="10"
        stroke-linecap="round"
        stroke-linejoin="round"/>
    <path d="M293.714 279.674H206.522C199.844 279.674 194.678 273.836 195.518 267.2L199.382 236.33C200.474 227.51 207.95 220.916 216.854 220.916H283.466C292.328 220.916 299.804 227.51 300.938 236.33L304.802 267.2C305.558 273.836 300.392 279.674 293.714 279.674Z"
        fill="#F1534D"/>
    <g opacity="0.24">
        <path opacity="0.24"
            d="M199.34 239.606C200.432 230.786 207.908 224.192 216.812 224.192H283.424C292.286 224.192 299.762 230.786 300.896 239.606L304.718 270.224C304.844 269.258 304.886 268.25 304.76 267.2L300.896 236.33C299.804 227.51 292.328 220.916 283.424 220.916H216.812C207.95 220.916 200.474 227.51 199.34 236.33L195.476 267.2C195.35 268.208 195.35 269.216 195.518 270.224L199.34 239.606Z"
            fill="#9B2121"/>
        <path opacity="0.24"
            d="M220.676 224.192C220.676 224.192 225.842 225.116 226.262 227.972C226.598 230.282 226.556 231.794 227.438 232.718C228.32 233.642 230.378 235.532 234.536 235.532C232.226 233.222 232.184 225.116 231.554 225.116C230.966 225.116 229.454 221.084 229.454 221.084L227.438 220.16C227.48 220.16 220.046 221.084 220.676 224.192Z"
            fill="#9B2121"/>
        <path opacity="0.24"
            d="M275.864 224.192C275.864 224.192 270.698 225.116 270.278 227.972C269.942 230.282 269.984 231.794 269.102 232.718C268.22 233.6 266.162 235.532 262.004 235.532C264.314 233.222 264.356 225.116 264.986 225.116C265.574 225.116 267.086 221.084 267.086 221.084L269.102 220.16C269.06 220.16 276.494 221.084 275.864 224.192Z"
            fill="#9B2121"/>
    </g>
    <path d="M293.714 279.674H206.522C199.844 279.674 194.678 273.836 195.518 267.2L199.382 236.33C200.474 227.51 207.95 220.916 216.854 220.916H283.466C292.328 220.916 299.804 227.51 300.938 236.33L304.802 267.2C305.558 273.836 300.392 279.674 293.714 279.674Z"
        stroke="black"
        stroke-width="4"
        stroke-miterlimit="10"
        stroke-linecap="round"
        stroke-linejoin="round"/>
    <path d="M215.972 246.998L215.132 257.54"
        stroke="black"
        stroke-width="4"
        stroke-miterlimit="10"
        stroke-linecap="round"
        stroke-linejoin="round"/>
    <path d="M284.894 246.998L285.734 257.54"
        stroke="black"
        stroke-width="4"
        stroke-miterlimit="10"
        stroke-linecap="round"
        stroke-linejoin="round"/>
    <path d="M238.904 203.36L225.086 202.646L218.618 203.36C218.618 203.36 214.292 206.594 214.292 207.476C214.292 208.358 214.712 215.54 214.712 215.54C214.712 215.54 224.918 216.926 226.01 217.976C227.102 219.026 233.57 225.074 233.57 225.074L239.828 222.638L243.104 213.902L238.904 203.36Z"
        fill="#9B2121"/>
    <path d="M236.468 198.026H220.508C214.082 198.026 208.832 203.234 208.832 209.702C208.832 216.128 214.04 221.378 220.508 221.378H222.608C226.01 221.378 228.74 224.108 228.74 227.51V228.14C228.74 232.214 232.058 235.532 236.132 235.532V227.972C236.216 227.972 236.3 228.056 236.3 228.14V227.51C236.3 219.95 230.168 213.818 222.608 213.818H220.508C218.24 213.818 216.392 211.97 216.392 209.702C216.392 207.434 218.24 205.586 220.508 205.586H236.468V198.026Z"
        fill="#F1534D"/>
    <path d="M235.502 222.764C233.57 217.556 228.53 213.776 222.65 213.776H220.55C218.282 213.776 216.434 211.928 216.434 209.66C216.434 207.392 218.282 205.544 220.55 205.544H236.51V197.984H220.55C214.124 197.984 208.874 203.192 208.874 209.66C208.874 216.086 214.082 221.336 220.55 221.336H222.65C226.052 221.336 228.782 224.066 228.782 227.468V228.098C228.782 232.172 232.1 235.49 236.174 235.49"
        stroke="black"
        stroke-width="4"
        stroke-miterlimit="10"
        stroke-linecap="round"
        stroke-linejoin="round"/>
    <path d="M257.174 203.36L270.992 202.646L277.46 203.36C277.46 203.36 281.786 206.594 281.786 207.476C281.786 208.358 281.366 215.54 281.366 215.54C281.366 215.54 271.16 216.926 270.068 217.976C268.976 219.068 262.508 225.074 262.508 225.074L256.25 222.638L252.974 213.902L257.174 203.36Z"
        fill="#9B2121"/>
    <path d="M259.61 198.026H275.57C281.996 198.026 287.246 203.234 287.246 209.702C287.246 216.128 282.038 221.378 275.57 221.378H273.47C270.068 221.378 267.338 224.108 267.338 227.51V228.14C267.338 232.214 264.02 235.532 259.946 235.532V227.972C259.862 227.972 259.778 228.056 259.778 228.14V227.51C259.778 219.95 265.91 213.818 273.47 213.818H275.57C277.838 213.818 279.686 211.97 279.686 209.702C279.686 207.434 277.838 205.586 275.57 205.586H259.61V198.026Z"
        fill="#F1534D"/>
    <path d="M260.618 222.764C262.55 217.556 267.59 213.776 273.47 213.776H275.57C277.838 213.776 279.686 211.928 279.686 209.66C279.686 207.392 277.838 205.544 275.57 205.544H259.61V197.984H275.57C281.996 197.984 287.246 203.192 287.246 209.66C287.246 216.086 282.038 221.336 275.57 221.336H273.47C270.068 221.336 267.338 224.066 267.338 227.468V228.098C267.338 232.172 264.02 235.49 259.946 235.49"
        stroke="black"
        stroke-width="4"
        stroke-miterlimit="10"
        stroke-linecap="round"
        stroke-linejoin="round"/>
    <path d="M248.816 229.568C257.862 229.568 265.196 222.234 265.196 213.188C265.196 204.141 257.862 196.808 248.816 196.808C239.77 196.808 232.436 204.141 232.436 213.188C232.436 222.234 239.77 229.568 248.816 229.568Z"
        fill="#F46262"/>
    <path d="M233.15 208.358C237.686 211.256 243.062 212.978 248.816 212.978C254.57 212.978 259.946 211.298 264.482 208.358C262.424 201.638 256.208 196.766 248.816 196.766C241.466 196.808 235.208 201.68 233.15 208.358Z"
        fill="#F1534D"/>
    <path d="M248.816 229.568C257.862 229.568 265.196 222.234 265.196 213.188C265.196 204.141 257.862 196.808 248.816 196.808C239.77 196.808 232.436 204.141 232.436 213.188C232.436 222.234 239.77 229.568 248.816 229.568Z"
        stroke="black"
        stroke-width="4"
        stroke-miterlimit="10"
        stroke-linecap="round"
        stroke-linejoin="round"/>
    <path d="M248.816 222.68C243.482 222.68 239.156 218.354 239.156 213.02V205.796C239.156 204.452 240.248 203.36 241.592 203.36H256.082C257.426 203.36 258.518 204.452 258.518 205.796V213.02C258.476 218.354 254.15 222.68 248.816 222.68Z"
        fill="#FFC897"/>
    <path d="M256.082 203.36H241.592C240.248 203.36 239.156 204.536 239.156 205.964V211.886C242.18 213.02 245.414 213.65 248.816 213.65C252.218 213.65 255.452 213.02 258.476 211.886V205.964C258.476 204.536 257.384 203.36 256.082 203.36Z"
        fill="#E5A973"/>
    <path d="M248.816 222.68C243.482 222.68 239.156 218.354 239.156 213.02V205.796C239.156 204.452 240.248 203.36 241.592 203.36H256.082C257.426 203.36 258.518 204.452 258.518 205.796V213.02C258.476 218.354 254.15 222.68 248.816 222.68Z"
        stroke="black"
        stroke-width="4"
        stroke-miterlimit="10"
        stroke-linecap="round"
        stroke-linejoin="round"/>
    <path d="M259.274 331.502H250.286V360.188H259.274V331.502Z"
        fill="#607691"/>
    <path d="M259.274 331.502H250.286V360.188H259.274V331.502Z"
        stroke="black"
        stroke-width="4"
        stroke-miterlimit="10"
        stroke-linecap="round"
        stroke-linejoin="round"/>
    <path d="M206.228 312.518C205.85 311.636 205.556 310.754 205.304 309.788C205.766 310.712 206.06 311.594 206.228 312.518Z"
        stroke="black"
        stroke-width="4"
        stroke-miterlimit="10"
        stroke-linecap="round"
        stroke-linejoin="round"/>
    <path d="M294.05 312.434C294.218 311.552 294.512 310.712 294.89 309.914C294.68 310.796 294.386 311.636 294.05 312.434Z"
        stroke="black"
        stroke-width="4"
        stroke-miterlimit="10"
        stroke-linecap="round"
        stroke-linejoin="round"/>
    <path d="M293.924 310.418H206.354C203.246 310.418 200.6 308.108 200.18 305L194.72 262.244C194.258 258.548 197.156 255.23 200.894 255.23H299.384C303.122 255.23 306.02 258.506 305.558 262.244L300.098 305C299.678 308.066 297.032 310.418 293.924 310.418Z"
        fill="#B5B5B5"/>
    <path opacity="0.21"
        d="M300.056 302.312C299.678 305.42 297.032 307.73 293.882 307.73H206.354C203.246 307.73 200.6 305.42 200.18 302.312L194.804 260.186C194.678 260.858 194.636 261.53 194.72 262.244L200.18 305C200.558 308.108 203.204 310.418 206.354 310.418H293.924C297.032 310.418 299.678 308.108 300.098 305L305.558 262.244C305.642 261.53 305.6 260.858 305.474 260.186L300.056 302.312Z"
        fill="#7E7E7E"/>
    <path opacity="0.21"
        d="M194.762 262.622C195.266 259.766 197.786 257.498 200.852 257.498H299.342C302.45 257.498 304.928 259.724 305.432 262.622L305.474 262.202C305.936 258.506 303.038 255.188 299.3 255.188H200.894C197.156 255.188 194.258 258.464 194.72 262.202L194.762 262.622Z"
        fill="#7E7E7E"/>
    <path d="M293.924 310.418H206.354C203.246 310.418 200.6 308.108 200.18 305L194.72 262.244C194.258 258.548 197.156 255.23 200.894 255.23H299.384C303.122 255.23 306.02 258.506 305.558 262.244L300.098 305C299.678 308.066 297.032 310.418 293.924 310.418Z"
        stroke="black"
        stroke-width="4"
        stroke-miterlimit="10"
        stroke-linecap="round"
        stroke-linejoin="round"/>
    <path opacity="0.66"
        d="M254.276 280.22C252.386 280.22 250.874 278.708 250.874 276.818C250.874 276.692 250.874 276.566 250.916 276.44C250.58 276.398 250.244 276.356 249.908 276.356C246.842 276.356 244.322 278.876 244.322 281.942C244.322 285.008 246.842 287.528 249.908 287.528C252.974 287.528 255.494 285.008 255.494 281.942C255.494 281.312 255.368 280.682 255.2 280.094C254.906 280.136 254.612 280.22 254.276 280.22Z"
        fill="#B5B5B5"/>
    <path d="M297.62 347.798C296.234 343.304 291.992 340.91 285.104 338.894C280.736 337.634 275.192 337.046 266.498 335.282C262.256 334.442 259.274 332.762 259.274 332.762V337.592C259.274 337.592 288.044 343.262 292.538 350.696C294.722 354.35 294.05 363.296 283.76 364.22C286.91 364.682 292.076 363.884 294.848 361.07C298.292 357.584 299.216 352.922 297.62 347.798Z"
        fill="#282323"
        stroke="black"
        stroke-width="4"
        stroke-miterlimit="10"
        stroke-linecap="round"
        stroke-linejoin="round"/>
    <path d="M259.274 337.592C259.274 337.592 276.494 340.784 285.692 344.732C293.756 348.218 293.504 351.83 293.714 355.526C293.84 357.668 292.328 362.96 286.196 363.884C278.888 364.976 270.278 363.8 259.274 356.786C259.274 339.608 259.274 337.592 259.274 337.592Z"
        fill="#442C2A"/>
    <path opacity="0.37"
        d="M293.714 355.526C293.546 352.544 293.672 349.604 289.472 346.748C289.64 347.798 289.682 348.806 289.724 349.856C289.85 351.998 288.338 357.29 282.206 358.214C275.822 359.18 268.388 358.382 259.274 353.468C259.274 354.518 259.274 355.61 259.274 356.744C270.278 363.758 278.888 364.892 286.196 363.842C292.37 362.96 293.84 357.626 293.714 355.526Z"
        fill="#442C2A"/>
    <path d="M259.274 337.592C259.274 337.592 276.494 340.784 285.692 344.732C293.756 348.218 293.504 351.83 293.714 355.526C293.84 357.668 292.328 362.96 286.196 363.884C278.888 364.976 270.278 363.8 259.274 356.786C259.274 339.608 259.274 337.592 259.274 337.592Z"
        stroke="black"
        stroke-width="4"
        stroke-miterlimit="10"
        stroke-linecap="round"
        stroke-linejoin="round"/>
    <path d="M275.234 347.462C276.62 348.218 276.284 355.568 272.924 356.576"
        stroke="black"
        stroke-width="4"
        stroke-miterlimit="10"
        stroke-linecap="round"
        stroke-linejoin="round"/>
    <path d="M269.984 346.916C271.412 348.932 270.404 353.678 267.842 354.854"
        stroke="black"
        stroke-width="4"
        stroke-miterlimit="10"
        stroke-linecap="round"
        stroke-linejoin="round"/>
    <path d="M265.154 345.236C266.582 347.252 265.574 351.998 263.012 353.174"
        stroke="black"
        stroke-width="4"
        stroke-miterlimit="10"
        stroke-linecap="round"
        stroke-linejoin="round"/>
    <path d="M234.074 231.248V253.592"
        stroke="black"
        stroke-width="6"
        stroke-miterlimit="10"
        stroke-linecap="round"
        stroke-linejoin="round"/>
    <path d="M262.424 231.248V246.998"
        stroke="black"
        stroke-width="6"
        stroke-miterlimit="10"
        stroke-linecap="round"
        stroke-linejoin="round"/>
    <path d="M262.424 251.744C264.349 251.744 265.91 250.183 265.91 248.258C265.91 246.332 264.349 244.772 262.424 244.772C260.499 244.772 258.938 246.332 258.938 248.258C258.938 250.183 260.499 251.744 262.424 251.744Z"
        fill="black"/>
    <path d="M262.424 249.266C263.213 249.266 263.852 248.626 263.852 247.838C263.852 247.049 263.213 246.41 262.424 246.41C261.635 246.41 260.996 247.049 260.996 247.838C260.996 248.626 261.635 249.266 262.424 249.266Z"
        fill="#7E7E7E"/>
    <path d="M248.816 210.458C234.2 210.458 222.314 198.614 222.314 183.956V153.212H275.318V183.956C275.318 198.572 263.474 210.458 248.816 210.458Z"
        fill="#FFC897"/>
    <path d="M248.816 206.804C234.2 206.804 222.314 194.96 222.314 180.302V183.956C222.314 198.572 234.158 210.458 248.816 210.458C263.432 210.458 275.318 198.614 275.318 183.956V180.302C275.318 194.918 263.474 206.804 248.816 206.804Z"
        fill="#E5A973"/>
    <path d="M248.816 210.458C234.2 210.458 222.314 198.614 222.314 183.956V153.212H275.318V183.956C275.318 198.572 263.474 210.458 248.816 210.458Z"
        stroke="black"
        stroke-width="4"
        stroke-miterlimit="10"
        stroke-linecap="round"
        stroke-linejoin="round"/>
    <path d="M275.528 156.278C275.444 154.85 275.36 153.38 275.318 151.952C257.678 152.792 239.954 152.666 222.356 151.112C222.23 152.75 222.146 154.388 222.02 156.026C222.818 156.74 223.658 157.496 224.456 158.21C225.128 158.546 226.01 159.008 226.808 159.428C230.336 161.276 235.25 163.628 239.954 164.552C241.676 164.888 243.482 165.056 245.33 165.014C253.268 164.93 259.946 161.78 262.76 160.478C263.18 160.268 263.516 160.1 263.726 160.058C263.894 159.974 264.062 159.932 264.314 159.932C264.818 159.932 265.406 160.058 266.12 160.184C267.044 160.394 268.136 160.604 269.354 160.52C270.74 160.436 272 160.016 273.218 159.218C273.932 158.21 274.73 157.244 275.528 156.278Z"
        fill="#E5A973"/>
    <path d="M262.76 140.318C262.76 140.318 241.55 126.332 223.994 141.956C220.718 144.854 219.416 149.012 219.416 152.834V173.078H222.356V158.378C222.356 157.286 223.112 156.446 224.036 156.446C225.548 156.446 233.738 160.814 240.668 162.032C251.126 163.838 260.66 159.008 262.718 158.294C266.246 157.034 269.102 161.402 273.554 156.488H273.722C274.646 156.488 275.402 157.37 275.402 158.42V173.12H278.342V152.96C278.258 148.004 272.546 135.572 262.76 140.318Z"
        fill="#231A17"/>
    <g opacity="0.34">
        <path opacity="0.34"
            d="M222.314 170.306H219.374V173.078H222.314V170.306Z"
            fill="#231A17"/>
        <path opacity="0.34"
            d="M278.258 170.306H275.318V173.078H278.258V170.306Z"
            fill="#231A17"/>
    </g>
    <path d="M262.76 140.318C262.76 140.318 241.55 126.332 223.994 141.956C220.718 144.854 219.416 149.012 219.416 152.834V173.078H222.356V158.378C222.356 157.286 223.112 156.446 224.036 156.446C225.548 156.446 233.738 160.814 240.668 162.032C251.126 163.838 260.66 159.008 262.718 158.294C266.246 157.034 269.102 161.402 273.554 156.488H273.722C274.646 156.488 275.402 157.37 275.402 158.42V173.12H278.342V152.96C278.258 148.004 272.546 135.572 262.76 140.318Z"
        stroke="black"
        stroke-width="4"
        stroke-miterlimit="10"
        stroke-linecap="round"
        stroke-linejoin="round"/>
    <path d="M244.826 153.968C244.826 153.968 222.062 155.438 217.232 143.342"
        stroke="black"
        stroke-width="4"
        stroke-miterlimit="10"
        stroke-linecap="round"
        stroke-linejoin="round"/>
    <path d="M248.06 151.07C248.06 151.07 226.136 149.684 220.424 137.588"
        stroke="black"
        stroke-width="4"
        stroke-miterlimit="10"
        stroke-linecap="round"
        stroke-linejoin="round"/>
    <path d="M275.318 169.802V183.578C278.258 183.578 280.61 180.512 280.61 176.69C280.61 172.868 278.258 169.802 275.318 169.802Z"
        fill="#FFC897"/>
    <path d="M275.318 170.558V182.78C277.04 181.646 278.216 179.336 278.216 176.648C278.216 174.002 277.04 171.692 275.318 170.558Z"
        fill="#E5A973"/>
    <path d="M275.318 169.802V183.578C278.258 183.578 280.61 180.512 280.61 176.69C280.61 172.868 278.258 169.802 275.318 169.802Z"
        stroke="black"
        stroke-width="4"
        stroke-miterlimit="10"
        stroke-linecap="round"
        stroke-linejoin="round"/>
    <path d="M222.356 169.802V183.578C219.416 183.578 217.064 180.512 217.064 176.69C217.022 172.868 219.416 169.802 222.356 169.802Z"
        fill="#FFC897"/>
    <path d="M222.356 170.81C220.844 172.028 219.794 174.212 219.794 176.69C219.794 179.168 220.802 181.352 222.356 182.57V170.81Z"
        fill="#E5A973"/>
    <path d="M222.356 169.802V183.578C219.416 183.578 217.064 180.512 217.064 176.69C217.022 172.868 219.416 169.802 222.356 169.802Z"
        stroke="black"
        stroke-width="4"
        stroke-miterlimit="10"
        stroke-linecap="round"
        stroke-linejoin="round"/>
    <path d="M247.724 181.016L245.96 186.77C245.96 187.4 248.018 186.896 250.118 187.4"
        stroke="black"
        stroke-width="4"
        stroke-miterlimit="10"
        stroke-linecap="round"
        stroke-linejoin="round"/>
    <path d="M257.636 191.768C258.266 196.136 252.638 200 248.228 199.202"
        stroke="black"
        stroke-width="3"
        stroke-miterlimit="10"
        stroke-linecap="round"
        stroke-linejoin="round"/>
    <path d="M239.282 176.144C240.256 176.144 241.046 175.297 241.046 174.254C241.046 173.21 240.256 172.364 239.282 172.364C238.308 172.364 237.518 173.21 237.518 174.254C237.518 175.297 238.308 176.144 239.282 176.144Z"
        stroke="black"
        stroke-width="2"
        stroke-miterlimit="10"
        stroke-linecap="round"
        stroke-linejoin="round"/>
    <path d="M239.282 176.144C240.256 176.144 241.046 175.297 241.046 174.254C241.046 173.21 240.256 172.364 239.282 172.364C238.308 172.364 237.518 173.21 237.518 174.254C237.518 175.297 238.308 176.144 239.282 176.144Z"
        fill="black"/>
    <path d="M233.192 170.264C234.074 169.214 236.132 168.5 238.568 168.5C240.5 168.5 242.18 168.962 243.23 169.676"
        stroke="black"
        stroke-width="3"
        stroke-miterlimit="10"
        stroke-linecap="round"
        stroke-linejoin="round"/>
    <path d="M258.602 176.144C259.576 176.144 260.366 175.297 260.366 174.254C260.366 173.21 259.576 172.364 258.602 172.364C257.628 172.364 256.838 173.21 256.838 174.254C256.838 175.297 257.628 176.144 258.602 176.144Z"
        stroke="black"
        stroke-width="2"
        stroke-miterlimit="10"
        stroke-linecap="round"
        stroke-linejoin="round"/>
    <path d="M258.602 176.144C259.576 176.144 260.366 175.297 260.366 174.254C260.366 173.21 259.576 172.364 258.602 172.364C257.628 172.364 256.838 173.21 256.838 174.254C256.838 175.297 257.628 176.144 258.602 176.144Z"
        fill="black"/>
    <path d="M264.692 170.264C263.81 169.214 261.752 168.5 259.316 168.5C257.384 168.5 255.704 168.962 254.654 169.676"
        stroke="black"
        stroke-width="3"
        stroke-miterlimit="10"
        stroke-linecap="round"
        stroke-linejoin="round"/>
</svg>
